<?xml version="1.0" standalone="no"?>
<!DOCTYPE svg PUBLIC "-//W3C//DTD SVG 20010904//EN"
 "http://www.w3.org/TR/2001/REC-SVG-20010904/DTD/svg10.dtd">
<svg version="1.0" xmlns="http://www.w3.org/2000/svg"
 width="848.000000pt" height="848.000000pt" viewBox="0 0 848.000000 848.000000"
 preserveAspectRatio="xMidYMid meet">
<metadata>
Created by potrace 1.14, written by Peter Selinger 2001-2017
</metadata>
<g transform="translate(0.000000,848.000000) scale(0.100000,-0.100000)"
fill="#000000" stroke="none">
<path d="M815 8463 c8 -21 94 -251 135 -363 61 -166 163 -441 199 -535 21 -55
66 -176 101 -270 34 -93 65 -179 70 -190 4 -11 14 -36 20 -55 7 -19 18 -48 25
-65 7 -16 25 -64 40 -105 15 -41 43 -114 61 -162 19 -49 34 -92 34 -98 0 -5 6
-24 14 -42 8 -18 20 -46 27 -63 7 -16 13 -34 15 -40 1 -5 8 -23 15 -40 6 -16
13 -34 14 -40 2 -5 22 -59 45 -120 23 -60 43 -114 44 -120 2 -5 8 -23 14 -38
7 -15 15 -39 18 -53 3 -13 10 -27 15 -30 5 -3 9 -15 9 -28 0 -12 5 -27 10 -32
6 -6 12 -19 15 -30 2 -10 27 -80 55 -154 28 -74 58 -155 67 -180 8 -25 20 -56
26 -70 6 -14 11 -27 11 -30 1 -6 53 -141 71 -185 7 -16 18 -48 25 -70 7 -22
18 -53 25 -70 8 -16 37 -93 65 -170 28 -77 55 -149 60 -160 20 -48 52 -134 54
-146 1 -8 10 -31 19 -53 9 -21 17 -44 17 -50 0 -7 4 -16 8 -21 5 -6 19 -41 32
-80 13 -38 26 -74 30 -80 4 -5 15 -35 24 -65 10 -30 24 -68 31 -85 7 -16 20
-50 28 -75 9 -25 22 -58 28 -75 7 -16 13 -34 15 -40 1 -5 19 -53 39 -105 20
-52 38 -99 39 -105 2 -5 7 -21 13 -35 6 -14 34 -90 63 -170 28 -80 59 -158 68
-175 9 -16 15 -30 13 -30 -4 0 139 -395 159 -440 5 -11 32 -83 60 -160 28 -77
57 -153 65 -170 7 -16 16 -41 20 -55 3 -14 10 -34 15 -45 5 -11 16 -38 23 -60
8 -22 28 -77 45 -122 17 -46 26 -85 21 -88 -5 -4 -9 -14 -9 -23 0 -21 -75
-177 -122 -255 -59 -97 -138 -185 -214 -238 -27 -19 -51 -37 -54 -40 -17 -20
-175 -81 -256 -99 -134 -30 -490 -33 -674 -6 -79 12 -171 29 -195 36 -16 5
-41 11 -55 14 -53 10 -165 42 -179 50 -5 4 -10 -2 -10 -11 0 -10 -2 -119 -6
-243 -3 -124 -7 -308 -10 -410 -2 -102 -7 -306 -10 -455 -12 -465 -12 -516 -2
-522 9 -6 36 -12 117 -28 14 -3 36 -8 50 -12 36 -9 106 -21 170 -29 14 -1 39
-5 55 -8 17 -3 53 -8 80 -11 28 -3 73 -7 101 -10 28 -3 84 -9 125 -12 94 -8
703 -8 789 0 181 16 244 23 300 31 14 2 48 7 75 11 28 3 57 8 65 10 8 2 31 7
50 10 31 5 72 14 145 31 11 3 31 7 45 10 14 2 36 9 50 14 14 5 35 11 47 13 12
2 26 6 29 10 4 4 17 7 29 7 12 0 25 3 29 7 3 4 12 8 19 9 7 1 29 9 50 18 20 9
37 13 37 10 0 -4 6 -2 13 3 6 5 39 20 72 33 136 54 344 174 480 279 183 139
367 342 508 559 56 85 168 283 201 356 13 28 40 86 60 129 20 42 36 80 36 83
0 3 8 24 19 47 10 23 33 80 51 127 17 47 36 90 40 95 5 6 8 12 7 15 -2 11 26
101 34 106 5 3 9 16 9 29 0 13 4 26 9 29 5 3 12 18 16 33 3 16 13 42 20 58 13
29 60 153 226 605 44 118 83 224 88 235 5 11 18 45 29 75 12 30 39 105 62 165
22 61 52 144 67 185 14 41 29 80 34 86 5 6 10 19 12 30 4 19 12 42 27 79 5 11
32 83 60 160 77 208 119 321 151 404 16 40 29 78 29 83 0 6 6 24 14 41 8 18
31 77 52 132 20 55 41 111 47 125 5 14 11 31 13 38 1 8 6 21 10 30 9 21 22 56
113 302 39 107 78 209 85 225 8 17 21 55 31 85 10 30 22 60 26 66 5 6 6 14 2
17 -3 4 -2 7 4 7 5 0 10 7 10 15 0 8 7 31 15 52 17 40 30 73 33 86 2 4 4 9 5
12 1 3 3 8 5 13 1 4 5 14 8 22 4 8 17 44 30 80 21 55 150 403 259 695 17 44
30 86 31 93 0 6 4 12 9 12 4 0 8 6 8 13 0 11 102 292 155 427 34 87 65 176 65
188 0 6 4 12 10 12 5 0 9 3 8 8 -3 7 32 109 57 167 7 17 16 41 20 55 4 14 23
66 42 115 19 50 36 95 38 100 1 6 5 17 8 25 4 8 16 42 28 75 12 33 26 71 32
85 6 14 11 27 11 30 4 15 59 158 67 172 5 10 9 22 9 27 0 5 5 22 12 38 6 15
12 30 13 33 1 3 5 12 8 20 7 18 84 225 132 358 l34 92 -1143 0 -1143 0 -17
-47 c-10 -27 -24 -66 -33 -88 -8 -22 -19 -49 -23 -60 -4 -11 -15 -40 -24 -65
-8 -25 -21 -58 -27 -75 -7 -16 -13 -34 -15 -40 -3 -14 -53 -146 -63 -170 -18
-39 -173 -464 -172 -470 1 -3 -5 -18 -13 -33 -8 -15 -23 -52 -34 -82 -11 -30
-36 -100 -56 -155 -20 -55 -40 -109 -45 -120 -5 -11 -42 -108 -81 -215 -39
-107 -75 -203 -80 -212 -6 -10 -10 -23 -10 -29 0 -6 -6 -25 -14 -42 -7 -18
-21 -52 -29 -77 -9 -25 -22 -58 -28 -75 -7 -16 -13 -34 -15 -40 -3 -14 -53
-146 -63 -170 -5 -11 -21 -51 -35 -90 -14 -38 -31 -83 -37 -100 -7 -16 -13
-33 -13 -37 -1 -3 -4 -10 -8 -14 -5 -4 -8 -16 -8 -26 0 -10 -5 -26 -10 -36 -6
-9 -23 -53 -39 -97 -16 -44 -43 -118 -61 -165 -17 -47 -44 -121 -60 -165 l-28
-79 -16 38 c-9 21 -16 44 -16 52 0 7 -4 16 -10 19 -6 3 -10 15 -10 26 0 10 -4
27 -10 37 -10 17 -140 359 -144 377 -1 6 -11 35 -23 65 -12 30 -45 118 -73
195 -63 171 -109 293 -122 320 -5 12 -10 27 -12 35 -2 8 -8 28 -14 43 -7 16
-12 31 -12 35 -1 4 -9 25 -20 47 -11 22 -19 44 -20 49 0 9 -204 560 -255 691
-4 11 -9 27 -11 35 -2 8 -7 23 -13 35 -5 11 -56 144 -111 295 -56 151 -105
284 -110 295 -4 11 -18 47 -30 80 -12 33 -25 69 -30 80 -4 11 -16 45 -27 75
-12 30 -26 71 -34 90 -7 19 -17 41 -22 48 -7 9 -249 12 -1149 12 -1082 0
-1140 -1 -1133 -17z"/>
</g>
</svg>
